HIERARCHY
ROOT Hips
{
    OFFSET   0.000000   0.000000   0.000000
    CHANNELS 6 Xposition Yposition Zposition Zrotation Xrotation Yrotation
    JOINT Chest
    {
        OFFSET   0.000000   8.007230   0.000000
        CHANNELS 3 Zrotation Xrotation Yrotation
        JOINT Chest2
        {
            OFFSET   0.000000  22.077100   0.000000
            CHANNELS 3 Zrotation Xrotation Yrotation
            JOINT Neck
            {
                OFFSET   0.000000  23.254800  -0.000021
                CHANNELS 3 Zrotation Xrotation Yrotation
                JOINT Head
                {
                    OFFSET   0.000000  14.370000   1.956610
                    CHANNELS 3 Zrotation Xrotation Yrotation
                    End Site
                    {
                        OFFSET   0.000000  19.566000   0.000000
                    }
                }
            }
            JOINT LeftCollar
            {
                OFFSET   3.911900  19.017000  -0.467063
                CHANNELS 3 Zrotation Xrotation Yrotation
                JOINT LeftShoulder
                {
                    OFFSET  10.383700   0.000000   0.000000
                    CHANNELS 3 Zrotation Xrotation Yrotation
                    JOINT LeftElbow
                    {
                        OFFSET  26.662100   0.001529   0.000325
                        CHANNELS 3 Zrotation Xrotation Yrotation
                        JOINT LeftWrist
                        {
                            OFFSET  28.869000  -0.000011  -0.000096
                            CHANNELS 3 Zrotation Xrotation Yrotation
                            JOINT LeftFinger0
                            {
                                OFFSET   2.044650  -2.323460   3.252850
                                CHANNELS 3 Zrotation Xrotation Yrotation
                                JOINT LeftFinger01
                                {
                                    OFFSET   3.088130   0.000000   0.000000
                                    CHANNELS 3 Zrotation Xrotation Yrotation
                                    JOINT LeftFinger02
                                    {
                                        OFFSET   2.639460   0.000000   0.000000
                                        CHANNELS 3 Zrotation Xrotation Yrotation
                                        End Site
                                        {
                                            OFFSET   2.582190   0.000000   0.000000
                                        }
                                    }
                                }
                            }
                            JOINT LeftFinger1
                            {
                                OFFSET   8.364480   0.000000   3.252850
                                CHANNELS 3 Zrotation Xrotation Yrotation
                                JOINT LeftFinger11
                                {
                                    OFFSET   4.646930   0.000000   0.000000
                                    CHANNELS 3 Zrotation Xrotation Yrotation
                                    JOINT LeftFinger12
                                    {
                                        OFFSET   2.323460   0.000000   0.000000
                                        CHANNELS 3 Zrotation Xrotation Yrotation
                                        End Site
                                        {
                                            OFFSET   2.273050   0.000000   0.000000
                                        }
                                    }
                                }
                            }
                            JOINT LeftFinger2
                            {
                                OFFSET   8.364480   0.000016   1.078090
                                CHANNELS 3 Zrotation Xrotation Yrotation
                                JOINT LeftFinger21
                                {
                                    OFFSET   5.111620   0.000000   0.000000
                                    CHANNELS 3 Zrotation Xrotation Yrotation
                                    JOINT LeftFinger22
                                    {
                                        OFFSET   2.788160   0.000017   0.000000
                                        CHANNELS 3 Zrotation Xrotation Yrotation
                                        End Site
                                        {
                                            OFFSET   2.727660   0.000000   0.000000
                                        }
                                    }
                                }
                            }
                            JOINT LeftFinger3
                            {
                                OFFSET   7.899780   0.000015  -1.078090
                                CHANNELS 3 Zrotation Xrotation Yrotation
                                JOINT LeftFinger31
                                {
                                    OFFSET   4.646920   0.000000   0.000000
                                    CHANNELS 3 Zrotation Xrotation Yrotation
                                    JOINT LeftFinger32
                                    {
                                        OFFSET   2.323470   0.000000   0.000000
                                        CHANNELS 3 Zrotation Xrotation Yrotation
                                        End Site
                                        {
                                            OFFSET   2.273050   0.000000   0.000000
                                        }
                                    }
                                }
                            }
                            JOINT LeftFinger4
                            {
                                OFFSET   7.435090   0.000000  -3.252850
                                CHANNELS 3 Zrotation Xrotation Yrotation
                                JOINT LeftFinger41
                                {
                                    OFFSET   3.717550   0.000000   0.000000
                                    CHANNELS 3 Zrotation Xrotation Yrotation
                                    JOINT LeftFinger42
                                    {
                                        OFFSET   1.858760   0.000000   0.000000
                                        CHANNELS 3 Zrotation Xrotation Yrotation
                                        End Site
                                        {
                                            OFFSET   1.818440   0.000000   0.000000
                                        }
                                    }
                                }
                            }
                        }
                    }
                }
            }
            JOINT RightCollar
            {
                OFFSET  -3.911900  19.017000  -0.467062
                CHANNELS 3 Zrotation Xrotation Yrotation
                JOINT RightShoulder
                {
                    OFFSET -10.383700   0.000015   0.000000
                    CHANNELS 3 Zrotation Xrotation Yrotation
                    JOINT RightElbow
                    {
                        OFFSET -26.662100   0.001341   0.000385
                        CHANNELS 3 Zrotation Xrotation Yrotation
                        JOINT RightWrist
                        {
                            OFFSET -28.869000   0.000025  -0.000080
                            CHANNELS 3 Zrotation Xrotation Yrotation
                            JOINT RightFinger0
                            {
                                OFFSET  -2.044650  -2.323490   3.252850
                                CHANNELS 3 Zrotation Xrotation Yrotation
                                JOINT RightFinger01
                                {
                                    OFFSET  -3.088130   0.000000   0.000000
                                    CHANNELS 3 Zrotation Xrotation Yrotation
                                    JOINT RightFinger02
                                    {
                                        OFFSET  -2.639460   0.000000   0.000000
                                        CHANNELS 3 Zrotation Xrotation Yrotation
                                        End Site
                                        {
                                            OFFSET  -2.582190   0.000000   0.000000
                                        }
                                    }
                                }
                            }
                            JOINT RightFinger1
                            {
                                OFFSET  -8.364480   0.000000   3.252850
                                CHANNELS 3 Zrotation Xrotation Yrotation
                                JOINT RightFinger11
                                {
                                    OFFSET  -4.646930   0.000000   0.000000
                                    CHANNELS 3 Zrotation Xrotation Yrotation
                                    JOINT RightFinger12
                                    {
                                        OFFSET  -2.323470   0.000000   0.000000
                                        CHANNELS 3 Zrotation Xrotation Yrotation
                                        End Site
                                        {
                                            OFFSET  -2.273050   0.000000   0.000000
                                        }
                                    }
                                }
                            }
                            JOINT RightFinger2
                            {
                                OFFSET  -8.364480   0.000000   1.078090
                                CHANNELS 3 Zrotation Xrotation Yrotation
                                JOINT RightFinger21
                                {
                                    OFFSET  -5.111610   0.000000   0.000000
                                    CHANNELS 3 Zrotation Xrotation Yrotation
                                    JOINT RightFinger22
                                    {
                                        OFFSET  -2.788160   0.000000   0.000000
                                        CHANNELS 3 Zrotation Xrotation Yrotation
                                        End Site
                                        {
                                            OFFSET  -2.727660   0.000000   0.000000
                                        }
                                    }
                                }
                            }
                            JOINT RightFinger3
                            {
                                OFFSET  -7.899780   0.000000  -1.078090
                                CHANNELS 3 Zrotation Xrotation Yrotation
                                JOINT RightFinger31
                                {
                                    OFFSET  -4.646920   0.000000   0.000000
                                    CHANNELS 3 Zrotation Xrotation Yrotation
                                    JOINT RightFinger32
                                    {
                                        OFFSET  -2.323470   0.000000   0.000000
                                        CHANNELS 3 Zrotation Xrotation Yrotation
                                        End Site
                                        {
                                            OFFSET  -2.273050   0.000000   0.000000
                                        }
                                    }
                                }
                            }
                            JOINT RightFinger4
                            {
                                OFFSET  -7.435090   0.000000  -3.252850
                                CHANNELS 3 Zrotation Xrotation Yrotation
                                JOINT RightFinger41
                                {
                                    OFFSET  -3.717550   0.000000   0.000000
                                    CHANNELS 3 Zrotation Xrotation Yrotation
                                    JOINT RightFinger42
                                    {
                                        OFFSET  -1.858770   0.000000   0.000000
                                        CHANNELS 3 Zrotation Xrotation Yrotation
                                        End Site
                                        {
                                            OFFSET  -1.818440   0.000000   0.000000
                                        }
                                    }
                                }
                            }
                        }
                    }
                }
            }
        }
    }
    JOINT LeftHip
    {
        OFFSET   9.783010   0.000000   0.000000
        CHANNELS 3 Zrotation Xrotation Yrotation
        JOINT LeftKnee
        {
            OFFSET   0.000070 -41.789100   0.000028
            CHANNELS 3 Zrotation Xrotation Yrotation
            JOINT LeftAnkle
            {
                OFFSET   0.000087 -41.133200  -0.000100
                CHANNELS 3 Zrotation Xrotation Yrotation
                JOINT LeftToe
                {
                    OFFSET   0.000000  -6.358960  14.674500
                    CHANNELS 3 Zrotation Xrotation Yrotation
                    End Site
                    {
                        OFFSET   0.000000   0.000000   3.913200
                    }
                }
            }
        }
    }
    JOINT RightHip
    {
        OFFSET  -9.783020   0.000000   0.000000
        CHANNELS 3 Zrotation Xrotation Yrotation
        JOINT RightKnee
        {
            OFFSET   0.000044 -41.789100  -0.000870
            CHANNELS 3 Zrotation Xrotation Yrotation
            JOINT RightAnkle
            {
                OFFSET  -0.000090 -41.133200  -0.000245
                CHANNELS 3 Zrotation Xrotation Yrotation
                JOINT RightToe
                {
                    OFFSET   0.000000  -6.358960  14.674500
                    CHANNELS 3 Zrotation Xrotation Yrotation
                    End Site
                    {
                        OFFSET   0.000000   0.000000   3.913200
                    }
                }
            }
        }
    }
}
MOTION
Frames: 4
Frame Time:   0.016667
  1.122370  89.966100  -0.924606  -0.525262  -3.061040  -2.719590  -0.163577   3.111830   0.040373  -0.330087   6.223530   0.089855   1.463110  -0.634316   0.018950   2.409580  -1.283350   5.707050  -6.064010  -2.349040   4.907270 -70.904300  20.933600   0.511672  -3.519810  -6.098060 -14.939900  16.806200   3.652590   8.807540  40.167900  31.034500 -69.837700 -24.540700   0.003205   0.001557  -7.274790   0.016223   0.011509 -36.111000  11.226300 -14.937700 -30.753300   0.004286   0.006219 -21.530800   0.006629   0.004457 -31.982700   0.445922  -0.714479 -47.957900   0.001066  -0.004066 -31.953400   0.005880  -0.001300 -28.766500   0.405222  -0.738276 -40.854700  -0.002340  -0.005101 -27.209200   0.010330  -0.006857 -36.571000  -0.152671   0.205469 -54.857000   0.003081  -0.008508 -36.534700   0.002036   0.000711  12.771300   2.767770   7.524730  63.839500  13.941400  -1.851290   2.778580  -7.015050  14.191300 -19.127000 -18.671800   0.480180 -34.251700  34.147700  70.623100  37.187300  -0.000639   0.000640  13.593700   0.000000  -0.000368  33.690900   0.837247   1.254410  27.573200   0.003099  -0.004856  19.301200  -0.000309  -0.003005  28.353700  -3.596360  -6.631040  36.889500  -0.004581   0.005306  24.568400  -0.000729   0.003713  28.567100  -3.614390  -6.604370  41.035500  -0.006577   0.004034  27.329700  -0.000599   0.002981  38.485700  -4.699680  -5.883650  58.090900  -0.003921   0.002546  38.688500   0.002800   0.001609   0.726358   4.485670   2.874220   0.268470   1.737710  13.803700  -5.327460  -4.987240   4.733010   0.000000   0.000000   0.000000   0.116419   4.380300  -6.902530   0.357417   1.903350  -9.890100  -7.734320   0.183686   0.406074  -0.000000   0.000000   0.000000
  1.135750  89.966100  -0.899428  -0.524519  -3.068890  -2.699440  -0.163577   3.124060   0.048242  -0.330399   6.247970   0.105653   1.471540  -0.644262   0.018931   2.418940  -1.303700   5.691530  -6.063970  -2.361700   4.881740 -70.878500  20.982600   0.488327  -3.522090  -6.132760 -14.956500  16.796100   3.658840   8.814890  40.165600  31.032600 -69.842600 -24.537500   0.003204   0.001531  -7.271260   0.016227   0.011528 -36.111000  11.226300 -14.937800 -30.753300   0.004287   0.006226 -21.530600   0.006628   0.004461 -31.982600   0.447796  -0.717297 -47.967200   0.001065  -0.004004 -31.953400   0.005841  -0.001273 -28.766400   0.406897  -0.741231 -40.867700  -0.002341  -0.005053 -27.217900   0.010326  -0.006820 -36.581100  -0.152492   0.205301 -54.872100   0.003090  -0.008469 -36.544700   0.002043   0.000716  12.783900   2.738110   7.524140  63.850700  13.974500  -1.902550   2.767540  -6.998560  14.177000 -18.838600 -18.593100   0.441744 -34.261400  34.406800  71.049100  37.214100  -0.000643   0.000596  13.607100   0.000000  -0.000369  33.683300   0.889112   1.332210  27.568000   0.003103  -0.004862  19.297600  -0.000304  -0.003008  28.341400  -3.542980  -6.536890  36.663100  -0.004578   0.005304  24.417600  -0.000725   0.003714  28.554800  -3.601250  -6.584880  40.595200  -0.006572   0.004018  27.036400  -0.000599   0.002962  38.462200  -4.680180  -5.869470  58.054000  -0.003920   0.002540  38.663900   0.002801   0.001604   0.711708   4.495560   2.876960   0.264950   1.741750  13.792100  -5.312880  -5.001920   4.724320   0.000000   0.000000   0.000000   0.115413   4.399080  -6.902540   0.350810   1.919990  -9.903800  -7.723080   0.160341   0.395505  -0.000000   0.000000   0.000000
  1.158290  89.966200  -0.857049  -0.523177  -3.085790  -2.661260  -0.163833   3.146630   0.060528  -0.331746   6.293070   0.130379   1.479980  -0.662238   0.018902   2.429640  -1.340380   5.664570  -6.063760  -2.385570   4.837870 -70.838700  21.067800   0.450459  -3.528700  -6.191610 -14.983000  16.778400   3.665100   8.822250  40.164900  31.027000 -69.850500 -24.527000   0.003203   0.001505  -7.263500   0.016241   0.011573 -36.111000  11.226200 -14.938000 -30.753300   0.004293   0.006240 -21.530400   0.006622   0.004472 -31.982500   0.452185  -0.724084 -47.978100   0.001061  -0.003872 -31.953400   0.005751  -0.001218 -28.766300   0.410848  -0.748303 -40.888100  -0.002343  -0.004951 -27.231500   0.010317  -0.006739 -36.597700  -0.152314   0.205134 -54.897000   0.003116  -0.008386 -36.561300   0.002060   0.000725  12.813000   2.677470   7.523370  63.869000  14.007400  -1.994350   2.746680  -6.982080  14.162700 -18.366800 -18.412700   0.403104 -34.234100  34.807600  71.786500  37.263800  -0.000647   0.000552  13.631900   0.000000  -0.000371  33.655100   0.986473   1.479680  27.547000   0.003115  -0.004882  19.282900  -0.000287  -0.003016  28.319100  -3.456330  -6.384410  36.282700  -0.004570   0.005298  24.164200  -0.000713   0.003719  28.533200  -3.588110  -6.565390  39.886700  -0.006562   0.003979  26.564500  -0.000598   0.002919  38.385300  -4.660690  -5.855290  57.935300  -0.003917   0.002520  38.584800   0.002804   0.001590   0.687096   4.529070   2.882850   0.256748   1.745890  13.766300  -5.289760  -5.026300   4.710250  -0.000000   0.000000   0.000000   0.112529   4.435770  -6.902730   0.341347   1.947680  -9.926070  -7.704700   0.120870   0.374475   0.000000   0.000000   0.000000
  1.176620  89.966300  -0.822462  -0.521784  -3.106950  -2.619600  -0.166203   3.169110   0.068473  -0.337104   6.338010   0.146517   1.476680  -0.679024   0.018880   2.426130  -1.374460   5.640040  -6.063240  -2.411760   4.798550 -70.814000  21.145400   0.423116  -3.540720  -6.242590 -14.999900  16.761200   3.664640   8.820250  40.166100  31.010500 -69.845800 -24.505100   0.003218   0.001534  -7.252290   0.016265   0.011640 -36.112200  11.226200 -14.937900 -30.754400   0.004305   0.006258 -21.530500   0.006607   0.004488 -31.982500   0.458858  -0.734727 -47.979900   0.001054  -0.003692 -31.953600   0.005618  -0.001138 -28.766100   0.416904  -0.759314 -40.901400  -0.002348  -0.004810 -27.240400   0.010304  -0.006625 -36.611200  -0.152962   0.206290 -54.917200   0.003157  -0.008274 -36.574800   0.002085   0.000737  12.855900   2.601940   7.546520  63.883200  13.987500  -2.093470   2.722940  -6.993430  14.174000 -17.994000 -18.145300   0.423460 -34.074600  35.075200  72.433800  37.307300  -0.000645   0.000552  13.653600  -0.000027  -0.000367  33.595700   1.093520   1.644680  27.500600   0.003138  -0.004916  19.250400  -0.000256  -0.003028  28.298800  -3.380670  -6.248480  35.958800  -0.004557   0.005287  23.948500  -0.000694   0.003726  28.506600  -3.621130  -6.631310  39.358300  -0.006548   0.003920  26.212600  -0.000600   0.002854  38.215600  -4.691570  -5.924720  57.686400  -0.003913   0.002489  38.419100   0.002808   0.001568   0.666792   4.597340   2.891330   0.251067   1.715710  13.729600  -5.274390  -5.045300   4.699480   0.000000   0.000000  -0.000000   0.108698   4.475660  -6.907180   0.336020   1.970370  -9.943310  -7.691110   0.087930   0.349469  -0.000000   0.000000   0.000000
